<svg width="46" height="46" viewBox="0 0 46 46" fill="none" xmlns="http://www.w3.org/2000/svg">
<path d="M30.6671 46H26.8338C26.3255 46 25.838 45.7981 25.4785 45.4386C25.1191 45.0792 24.9171 44.5917 24.9171 44.0833C24.9171 43.575 25.1191 43.0875 25.4785 42.728C25.838 42.3686 26.3255 42.1667 26.8338 42.1667H30.6671C31.1755 42.1667 31.663 41.9647 32.0224 41.6053C32.3819 41.2458 32.5838 40.7583 32.5838 40.25C32.5838 39.7417 32.3819 39.2542 32.0224 38.8947C31.663 38.5353 31.1755 38.3333 30.6671 38.3333H23.0005C21.4755 38.3333 20.0129 37.7275 18.9346 36.6492C17.8563 35.5709 17.2505 34.1083 17.2505 32.5833C17.2505 31.0583 17.8563 29.5958 18.9346 28.5175C20.0129 27.4391 21.4755 26.8333 23.0005 26.8333H36.4171C36.9255 26.8333 37.413 26.6314 37.7724 26.272C38.1319 25.9125 38.3338 25.425 38.3338 24.9167C38.3338 24.4083 38.1319 23.9208 37.7724 23.5614C37.413 23.2019 36.9255 23 36.4171 23H11.5005C-3.70252 22.5151 -3.69102 0.479167 11.5005 0H38.3338C40.3671 0 42.3172 0.807736 43.755 2.24551C45.1927 3.68329 46.0005 5.63334 46.0005 7.66667C46.0005 9.69999 45.1927 11.65 43.755 13.0878C42.3172 14.5256 40.3671 15.3333 38.3338 15.3333H11.5005C10.9921 15.3333 10.5046 15.1314 10.1452 14.772C9.78574 14.4125 9.58381 13.925 9.58381 13.4167C9.58381 12.9083 9.78574 12.4208 10.1452 12.0614C10.5046 11.7019 10.9921 11.5 11.5005 11.5H38.3338C39.3505 11.5 40.3255 11.0961 41.0444 10.3772C41.7633 9.65835 42.1671 8.68333 42.1671 7.66667C42.1671 6.65 41.7633 5.67498 41.0444 4.95609C40.3255 4.2372 39.3505 3.83333 38.3338 3.83333H11.5005C9.46715 3.83333 7.5171 4.64107 6.07933 6.07885C4.64155 7.51663 3.83381 9.46667 3.83381 11.5C3.83381 13.5333 4.64155 15.4834 6.07933 16.9212C7.5171 18.3589 9.46715 19.1667 11.5005 19.1667H36.4171C37.9421 19.1667 39.4047 19.7725 40.483 20.8508C41.5613 21.9291 42.1671 23.3917 42.1671 24.9167C42.1671 26.4417 41.5613 27.9042 40.483 28.9825C39.4047 30.0609 37.9421 30.6667 36.4171 30.6667H23.0005C22.4921 30.6667 22.0046 30.8686 21.6452 31.228C21.2857 31.5875 21.0838 32.075 21.0838 32.5833C21.0838 33.0917 21.2857 33.5792 21.6452 33.9386C22.0046 34.2981 22.4921 34.5 23.0005 34.5H30.6671C32.1921 34.5 33.6547 35.1058 34.733 36.1841C35.8113 37.2625 36.4171 38.725 36.4171 40.25C36.4171 41.775 35.8113 43.2375 34.733 44.3159C33.6547 45.3942 32.1921 46 30.6671 46Z" fill="#374957"/>
</svg>
